HIERARCHY
ROOT SimulationBone
{
	OFFSET 0.000000 0.000000 0.000000
	CHANNELS 6 Xposition Yposition Zposition Zrotation Yrotation Xrotation 
	JOINT Hips
	{
		OFFSET 0.000000 0.000000 0.000000
		CHANNELS 6 Xposition Yposition Zposition Zrotation Yrotation Xrotation 
		JOINT RightUpLeg
		{
			OFFSET 0.103455 1.857829 10.548506
			CHANNELS 3 Zrotation Yrotation Xrotation
			JOINT RightLeg
			{
				OFFSET 43.499996 -0.000034 0.000000
				CHANNELS 3 Zrotation Yrotation Xrotation
				JOINT RightFoot
				{
					OFFSET 42.372192 0.000015 -0.000006
					CHANNELS 3 Zrotation Yrotation Xrotation
					JOINT RightToe
					{
						OFFSET 17.299999 -0.000000 -0.000002
						CHANNELS 3 Zrotation Yrotation Xrotation
						End Site
						{
							OFFSET 0.000000 0.000000 0.000000
						}
					}
				}
			}
		}
		JOINT LeftUpLeg
		{
			OFFSET 0.103461 1.857828 -10.548504
			CHANNELS 3 Zrotation Yrotation Xrotation
			JOINT LeftLeg
			{
				OFFSET 43.500038 -0.000027 0.000010
				CHANNELS 3 Zrotation Yrotation Xrotation
				JOINT LeftFoot
				{
					OFFSET 42.372265 -0.000004 0.000015
					CHANNELS 3 Zrotation Yrotation Xrotation
					JOINT LeftToe
					{
						OFFSET 17.299992 -0.000005 0.000008
						CHANNELS 3 Zrotation Yrotation Xrotation
						End Site
						{
							OFFSET 0.000000 0.000000 0.000000
						}
					}
				}
			}
		}
		JOINT Spine
		{
			OFFSET 6.901968 -2.603732 0.000000
			CHANNELS 3 Zrotation Yrotation Xrotation
			JOINT Spine1
			{
				OFFSET 12.588099 -0.000001 0.000001
				CHANNELS 3 Zrotation Yrotation Xrotation
				JOINT Spine2
				{
					OFFSET 12.343203 -0.000001 -0.000000
					CHANNELS 3 Zrotation Yrotation Xrotation
					JOINT Neck
					{
						OFFSET 25.832890 -0.000002 0.000001
						CHANNELS 3 Zrotation Yrotation Xrotation
						JOINT Head
						{
							OFFSET 11.766614 0.000006 0.000000
							CHANNELS 3 Zrotation Yrotation Xrotation
							End Site
							{
								OFFSET 0.000000 0.000000 0.000000
							}
						}
					}
					JOINT RightShoulder
					{
						OFFSET 19.745895 -1.480368 6.000105
						CHANNELS 3 Zrotation Yrotation Xrotation
						JOINT RightArm
						{
							OFFSET 11.284125 -0.000008 -0.000020
							CHANNELS 3 Zrotation Yrotation Xrotation
							JOINT RightForeArm
							{
								OFFSET 33.000050 0.000002 0.000037
								CHANNELS 3 Zrotation Yrotation Xrotation
								JOINT RightHand
								{
									OFFSET 25.200003 0.000015 -0.000001
									CHANNELS 3 Zrotation Yrotation Xrotation
									End Site
									{
										OFFSET 0.000000 0.000000 0.000000
									}
								}
							}
						}
					}
					JOINT LeftShoulder
					{
						OFFSET 19.746092 -1.480371 -6.000073
						CHANNELS 3 Zrotation Yrotation Xrotation
						JOINT LeftArm
						{
							OFFSET 11.284139 -0.000016 -0.000008
							CHANNELS 3 Zrotation Yrotation Xrotation
							JOINT LeftForeArm
							{
								OFFSET 33.000092 0.000014 0.000002
								CHANNELS 3 Zrotation Yrotation Xrotation
								JOINT LeftHand
								{
									OFFSET 25.199774 0.000137 0.000428
									CHANNELS 3 Zrotation Yrotation Xrotation
									End Site
									{
										OFFSET 0.000000 0.000000 0.000000
									}
								}
							}
						}
					}
				}
			}
		}
	}
}
MOTION
Frames: 6
Frame Time: 0.016667
5.843089 0.000000 343.193749 0.000000 -88.962972 0.000000 2.853410 75.168900 -0.126458 101.206786 1.624588 177.608062 -168.611402 -4.608503 168.699758 -84.461804 1.076909 -5.587375 73.289254 0.736337 -10.599859 21.454568 0.003117 0.000015 141.931999 -6.330199 -169.098600 -69.397829 -6.209401 1.519549 90.108035 -1.331810 -2.894376 21.454553 -0.003089 0.000003 9.442684 1.117490 -2.056791 8.832453 2.388593 -4.023115 8.514913 2.364139 -4.037433 1.148278 0.626398 5.684583 -5.185625 -6.723957 7.530463 135.696063 -70.820480 44.185042 -11.042195 47.056779 0.217541 -70.645062 -13.010457 2.415688 3.704567 -16.271437 34.557577 178.985107 70.691717 0.242928 -15.343920 -55.260904 -23.085374 -38.934820 18.619569 -1.665820 15.292310 17.519500 10.960351 
6.099627 0.000000 348.217908 0.000000 -88.911729 0.000000 2.853924 75.954586 -0.444679 100.602666 0.901844 178.380283 -175.182250 -3.989137 171.624980 -88.426208 1.995207 -6.339674 75.213667 1.745781 -9.411132 21.454553 0.003105 0.000027 144.677567 -4.910228 -169.894271 -71.065948 -5.397320 1.869985 94.287323 -1.406259 -2.403767 21.454553 -0.003100 0.000001 9.242466 1.022433 -2.011447 8.435796 2.188608 -3.943744 8.118272 2.164622 -3.956854 0.391449 0.455781 5.654632 -4.413573 -6.714280 7.389184 132.028854 -71.128845 47.885258 -16.938476 44.059321 -6.212137 -71.113532 -12.955159 2.436633 2.145833 -14.393002 36.680653 178.517773 72.530975 -0.194927 -24.159405 -54.717178 -14.556083 -40.972019 19.238704 -1.769246 15.056882 15.885517 7.001330 
6.385164 0.000000 353.394637 0.000000 -88.916783 0.000000 2.803198 77.108833 -0.652578 100.429546 0.421404 178.523685 178.999669 -3.388009 173.340666 -90.212168 2.726451 -8.364003 76.977344 3.657101 -8.007126 21.454553 0.003106 0.000024 148.468217 -4.025816 -169.710134 -71.307604 -5.303873 2.462787 96.973269 -1.728616 -2.373912 21.454555 -0.003100 0.000000 9.182155 0.871863 -1.724388 8.324996 1.865381 -3.382068 8.007318 1.844783 -3.393247 -0.873224 0.460810 5.412946 -3.908325 -6.435544 7.035313 127.381973 -71.919204 52.526990 -21.666549 42.398880 -11.035407 -72.211382 -12.670473 2.457323 2.149878 -12.976792 38.027644 177.396979 73.698598 -1.318103 -29.671632 -53.031830 -8.181922 -44.793667 19.599462 -1.893784 13.752979 15.995159 3.073426 
6.696880 0.000000 358.709427 0.000000 -88.974874 0.000000 2.754565 78.523157 -0.781354 100.597923 0.097226 178.369641 173.956395 -2.909180 174.477875 -90.073724 3.144510 -10.931423 78.878371 5.985770 -6.297579 21.454559 0.003112 0.000014 153.050087 -3.484651 -169.060231 -70.507741 -5.650749 2.997658 98.192789 -2.041437 -2.522768 21.454555 -0.003094 -0.000000 9.210043 0.695294 -1.319836 8.391234 1.484375 -2.586015 8.073367 1.468590 -2.594920 -2.328402 0.508858 5.029873 -3.587478 -6.056656 6.546430 122.746615 -72.729974 57.140240 -25.320671 41.524556 -14.588559 -73.855091 -12.121436 2.484994 2.904749 -11.891370 38.713849 176.014910 74.398133 -2.717780 -32.699057 -50.915705 -3.491076 -49.780540 19.644706 -2.051407 11.952770 16.847271 -0.539477 
7.031957 0.000000 364.147766 0.000000 -89.082684 0.000000 2.761778 80.089073 -0.862343 101.011089 -0.151705 178.253439 169.735050 -2.521188 175.656578 -88.233271 3.182474 -13.343742 81.202772 8.227479 -4.199669 21.454563 0.003115 0.000008 158.150312 -3.039393 -168.442519 -69.042092 -6.147934 3.152254 97.968974 -2.120330 -2.552735 21.454555 -0.003088 0.000000 9.275269 0.522135 -0.921875 8.529343 1.110750 -1.802835 8.211345 1.099707 -1.809509 -3.655406 0.472445 4.581028 -3.365894 -5.747791 5.997137 119.704950 -73.217991 60.163951 -27.640113 40.866073 -16.861785 -75.960227 -11.272218 2.518713 3.632237 -10.953012 38.799783 174.853048 74.842292 -3.895984 -34.295287 -48.819794 0.218297 -55.302801 19.317303 -2.220652 10.382572 17.549346 -3.472906 
7.387574 0.000000 369.695146 0.000000 -89.236845 0.000000 2.872759 81.718987 -0.926845 101.588729 -0.434679 178.453071 166.382848 -2.085550 177.343375 -84.915648 2.770527 -15.021920 83.922521 9.890923 -1.837917 21.454558 0.003110 0.000012 163.547288 -2.388328 -168.222653 -67.184068 -6.481701 2.701909 96.292810 -1.815819 -2.313676 21.454552 -0.003086 0.000000 9.336728 0.367464 -0.628293 8.656577 0.780883 -1.227358 8.338527 0.773330 -1.232057 -4.556940 0.290356 4.129127 -3.202109 -5.619071 5.450857 119.563310 -73.223259 60.306618 -28.410884 40.024536 -17.806208 -78.389362 -10.129107 2.547853 3.743505 -9.998498 38.417863 174.267340 75.230875 -4.483914 -35.279027 -47.079462 3.573154 -60.841945 18.531084 -2.370815 9.635432 17.508362 -5.477618 
